PathFileType	4	(X/Y/Z)	c:/Users/goper/Files/vsCode/490R/osim_files/A01/A01_PWS_02.trc
DataRate	CameraRate	NumFrames	NumMarkers	Units                	OrigDataRate	OrigDataStartFrame	OrigNumFrames
120.00	120.00	7	36	mm	120.0	716	1431
                Frame#	Time	Mobility_markerset:LPSIS			Mobility_markerset:LASIS			Mobility_markerset:LTH1			Mobility_markerset:LTH2			Mobility_markerset:LTH3			Mobility_markerset:LTH4			Mobility_markerset:LLFE			Mobility_markerset:LMFE			Mobility_markerset:LSH1			Mobility_markerset:LSH2			Mobility_markerset:LSH3			Mobility_markerset:LSH4			Mobility_markerset:LLMAL			Mobility_markerset:LMMAL			Mobility_markerset:LCAL			Mobility_markerset:LMTP5			Mobility_markerset:LTOE			Mobility_markerset:LMTP1			Mobility_markerset:RPSIS			Mobility_markerset:RASIS			Mobility_markerset:RTH1			Mobility_markerset:RTH2			Mobility_markerset:RTH3			Mobility_markerset:RTH4			Mobility_markerset:RLFE			Mobility_markerset:RMFE			Mobility_markerset:RSH1			Mobility_markerset:RSH2			Mobility_markerset:RSH3			Mobility_markerset:RSH4			Mobility_markerset:RLMAL			Mobility_markerset:RMMAL			Mobility_markerset:RCAL			Mobility_markerset:RMTP1			Mobility_markerset:RTOE			Mobility_markerset:RMTP5		
		X1	Y1	Z1	X2	Y2	Z2	X3	Y3	Z3	X4	Y4	Z4	X5	Y5	Z5	X6	Y6	Z6	X7	Y7	Z7	X8	Y8	Z8	X9	Y9	Z9	X10	Y10	Z10	X11	Y11	Z11	X12	Y12	Z12	X13	Y13	Z13	X14	Y14	Z14	X15	Y15	Z15	X16	Y16	Z16	X17	Y17	Z17	X18	Y18	Z18	X19	Y19	Z19	X20	Y20	Z20	X21	Y21	Z21	X22	Y22	Z22	X23	Y23	Z23	X24	Y24	Z24	X25	Y25	Z25	X26	Y26	Z26	X27	Y27	Z27	X28	Y28	Z28	X29	Y29	Z29	X30	Y30	Z30	X31	Y31	Z31	X32	Y32	Z32	X33	Y33	Z33	X34	Y34	Z34	X35	Y35	Z35	X36	Y36	Z36

716	5.95833	-1182.52148	1026.41272	302.89471	-1410.88660	998.00385	415.81454	-1313.73523	664.07294	479.39374	-1325.67847	617.74402	476.11816	-1374.00769	671.96661	487.48566	-1377.00964	625.93109	479.03162	-1332.88135	499.24948	451.57062	-1390.71667	471.15317	330.21017	-1186.08459	431.93121	400.88562	-1147.67908	404.16910	394.83926	-1214.32422	379.08865	416.64490	-1173.88806	360.75275	406.77646	-962.54663	241.69745	336.08945	-983.83917	236.81262	252.95590	-909.86346	282.11807	267.72992	-989.88098	104.50155	385.99448	-1043.92371	89.10574	334.03589	-1035.54297	88.42075	296.32938	-1196.97217	1031.92627	201.39104	-1436.90857	999.07892	161.39288	-1385.50024	664.05505	89.47109	-1405.23889	625.69934	99.76737	-1444.11011	685.98145	92.12886	-1453.93274	644.63086	100.46880	-1480.32239	504.24213	156.88226	-1466.96204	525.79376	275.76743	-1393.97278	302.86151	149.22191	-1396.70801	257.90585	152.02556	-1455.75513	300.30725	153.60841	-1450.58386	255.89693	155.85825	-1412.65674	84.87992	194.27597	-1432.42334	106.49570	279.02493	-1356.87268	61.09487	242.77666	-1562.28076	42.84769	289.76865	-1597.70251	58.59383	244.90033	-1545.27527	34.24554	174.96140
717	5.96667	-1191.99463	1027.82068	302.21072	-1418.80798	1000.79529	415.45377	-1328.47266	667.10596	479.38812	-1341.76453	620.83844	476.47092	-1388.90283	675.99817	488.22440	-1392.76050	630.04224	480.11902	-1352.07568	504.55038	452.42667	-1411.64990	475.54996	332.34308	-1206.10083	436.20062	400.85727	-1167.92297	408.27991	394.78568	-1234.50586	383.65009	417.45212	-1194.08337	364.90900	407.28339	-984.05029	244.36891	335.53598	-1006.22369	238.91533	252.64047	-932.12897	283.96594	265.99606	-1011.14648	107.63922	386.92175	-1066.01233	91.76195	335.79794	-1057.59143	90.65398	298.14960	-1206.49695	1033.50024	200.55751	-1446.29382	999.88776	160.24783	-1391.05066	664.45630	88.69060	-1410.19922	626.06512	99.06216	-1449.59802	685.92133	91.24791	-1459.13208	644.51019	99.80019	-1483.90869	503.60544	156.18187	-1470.58240	525.51318	275.07297	-1395.34131	303.29370	148.89426	-1397.79053	258.30862	151.68947	-1457.09106	300.22433	152.87755	-1451.69922	255.83389	155.21146	-1412.76306	84.93851	194.10402	-1432.72034	106.71661	278.77261	-1357.00098	61.31926	242.66766	-1562.36548	42.83013	289.62323	-1597.82104	58.38566	244.70859	-1545.38586	34.06620	174.80861
718	5.97500	-1201.54639	1029.22388	301.72092	-1427.99548	1003.51532	415.36105	-1344.64050	669.91815	478.51831	-1357.64221	623.95856	476.59183	-1403.45642	680.06958	488.87143	-1408.34424	634.17975	481.02484	-1371.49072	509.02084	453.05835	-1432.30896	480.44016	333.56824	-1226.79932	439.25894	401.53793	-1188.71973	411.24210	395.34515	-1255.38013	387.04504	418.16119	-1215.32776	367.97879	407.98700	-1006.20282	245.59035	335.86960	-1028.59839	240.30244	253.13292	-954.19305	284.81622	266.22217	-1034.40759	109.22031	387.42441	-1089.62415	93.51974	336.70639	-1081.16711	92.49963	298.81485	-1215.80371	1035.00598	199.88704	-1456.52368	1000.68335	158.92160	-1396.53040	664.87372	87.80123	-1414.96814	626.44861	97.96941	-1455.06311	685.84662	90.48367	-1463.90051	644.61816	98.74750	-1487.48645	503.54761	155.28757	-1474.26562	524.91406	274.38184	-1396.66565	303.63113	148.58101	-1398.67566	258.78601	151.32971	-1458.34326	300.11594	152.08139	-1452.64331	255.80096	154.42554	-1412.87695	85.05656	193.82410	-1433.05615	106.96149	278.46957	-1357.14526	61.50233	242.59778	-1562.41223	42.75622	289.54074	-1597.94360	58.10478	244.51869	-1545.45996	33.85142	174.61339
719	5.98333	-1210.91406	1030.94177	301.32126	-1437.48438	1006.46790	414.97668	-1359.32520	672.61383	478.54163	-1373.68970	627.07452	476.45407	-1418.02673	684.12024	489.42178	-1423.87170	638.34955	481.64807	-1391.79541	512.84827	453.86816	-1452.20117	485.77905	333.96613	-1247.78381	441.52713	402.73700	-1209.82825	413.09393	396.46768	-1277.17236	389.57501	418.98178	-1237.11780	370.19363	408.82153	-1029.24438	245.24985	336.87659	-1051.21643	241.18788	254.10344	-976.37817	284.60651	267.94601	-1059.41406	109.29724	387.58218	-1114.47217	94.82523	336.25345	-1106.03601	93.84232	298.46039	-1225.14661	1036.57483	199.21915	-1465.89880	1001.07404	158.11014	-1401.78381	665.47906	86.84295	-1419.76611	626.84778	97.03671	-1460.33838	685.99921	89.66965	-1468.71021	644.64270	97.94411	-1490.75708	503.71625	154.34760	-1477.78760	524.09082	273.15201	-1397.88330	304.12766	148.01146	-1399.60779	259.14316	150.81851	-1459.50183	300.09753	151.11929	-1453.53796	255.84065	153.64647	-1412.97913	85.20729	193.46924	-1433.41760	107.29618	278.06039	-1357.25232	61.81944	242.45493	-1562.44019	42.78910	289.41611	-1598.02026	57.87377	244.33662	-1545.49048	33.66428	174.44135
720	5.99167	-1220.33313	1032.82922	300.93213	-1447.01733	1008.91119	414.71243	-1374.55225	675.35852	478.42139	-1390.07166	630.31708	476.42151	-1432.94946	688.37238	489.78970	-1440.20154	642.85590	482.17416	-1412.52161	516.14539	454.59158	-1471.92615	491.50882	333.71271	-1269.15308	443.05954	404.35901	-1231.69983	414.14960	398.35544	-1299.95020	390.93549	419.43008	-1259.69507	371.45639	409.74759	-1053.17249	243.89804	338.80182	-1074.08032	241.32080	255.72522	-998.77222	283.12994	271.23465	-1086.28247	107.91399	387.24594	-1140.57678	94.99464	335.08713	-1132.27649	94.55287	297.00375	-1234.38464	1038.18958	198.72478	-1474.97083	1001.29773	157.36063	-1406.50696	666.73828	85.74954	-1424.44714	627.47748	96.12484	-1465.85938	686.11761	89.15225	-1473.47559	644.83246	97.09314	-1493.83740	503.84549	153.29082	-1481.85657	523.48010	272.15564	-1399.00574	304.56680	147.41827	-1400.51147	259.64456	150.35457	-1460.83228	300.09360	150.30902	-1454.42407	255.86624	152.91101	-1413.27283	86.10037	191.94376	-1433.74792	107.71487	277.66946	-1357.39478	62.13714	242.31276	-1562.50977	42.87480	289.31186	-1598.14246	57.67192	244.13985	-1545.70544	33.72859	174.15820
721	6.00000	-1229.76978	1034.83289	300.63303	-1456.41174	1011.17529	414.64304	-1390.08545	678.41809	478.37024	-1406.78772	633.65814	476.45639	-1448.07654	692.80548	489.81964	-1456.47852	647.43970	482.47681	-1433.48218	519.18689	455.27530	-1490.28223	497.67966	332.51398	-1290.64795	444.05377	406.20480	-1253.75769	414.34259	400.39130	-1322.79358	392.27292	419.88351	-1282.71289	372.05768	410.69043	-1077.67566	241.46193	341.24677	-1097.20178	240.61133	257.71597	-1021.58832	280.76242	275.20218	-1114.36438	105.26269	386.81851	-1167.97083	94.09652	333.51355	-1159.08960	94.36246	295.59390	-1243.33911	1039.89990	198.29686	-1484.20178	1001.60406	156.79359	-1411.43250	667.97894	84.94971	-1428.52625	628.75311	95.25341	-1470.99146	686.50470	88.34689	-1478.27795	644.95770	96.47182	-1496.63977	503.71240	152.40849	-1485.68677	522.80927	271.20166	-1400.32800	305.04233	146.83278	-1401.63794	260.00674	149.85426	-1462.10046	300.32617	149.59660	-1455.37170	255.99266	152.15790	-1413.38696	86.38552	191.52477	-1434.02380	108.10901	277.26413	-1357.72766	62.43649	242.41264	-1562.51086	42.93754	289.14526	-1598.23975	57.51933	243.95689	-1545.76025	33.55069	174.02045
722	6.00833	-1239.24951	1036.84009	300.30283	-1465.45459	1013.08167	414.42932	-1405.92224	681.67920	478.24445	-1423.58899	637.24915	476.57205	-1463.64172	697.38489	489.62885	-1473.06250	652.22632	482.60242	-1454.30908	522.26709	455.62418	-1509.17444	504.01682	331.35864	-1312.39685	444.50244	408.21097	-1276.12402	414.09412	402.56885	-1346.05493	393.27347	420.30862	-1306.03918	372.49323	411.66962	-1102.95642	238.04602	344.02063	-1120.76953	238.98955	260.21127	-1044.52844	277.08588	279.92062	-1143.80005	101.93862	386.51541	-1196.43811	93.04617	332.02258	-1186.80713	93.56234	294.39804	-1252.42285	1041.46643	198.03758	-1492.71497	1002.06122	156.32106	-1416.13916	669.31622	84.30397	-1432.80627	629.82501	94.42268	-1475.93982	686.98505	87.55228	-1482.77136	645.28033	95.52948	-1499.33667	503.38403	151.66193	-1489.65576	522.70978	270.00238	-1401.74829	305.45935	146.25134	-1402.68677	260.52133	149.28578	-1463.44702	300.30624	148.92210	-1456.46582	256.11533	151.62694	-1413.51440	86.51441	191.30411	-1434.26257	108.48808	276.87833	-1357.65625	62.77474	242.11020	-1562.58765	43.00467	288.98679	-1598.31201	57.42983	243.77766	-1545.79370	33.37360	173.86659
